<?xml version="1.0" standalone="no"?>
<!DOCTYPE svg PUBLIC "-//W3C//DTD SVG 20010904//EN"
 "http://www.w3.org/TR/2001/REC-SVG-20010904/DTD/svg10.dtd">
<svg version="1.0" xmlns="http://www.w3.org/2000/svg"
 width="4000.000000pt" height="4000.000000pt" viewBox="0 0 4000.000000 4000.000000"
 preserveAspectRatio="xMidYMid meet">

<g transform="translate(0.000000,4000.000000) scale(0.100000,-0.100000)"
fill="#000000" stroke="none">
<path d="M20333 27937 c0 -7 9 -14 20 -14 11 -1 18 -1 16 0 -2 2 -11 8 -20 15
-12 9 -16 9 -16 -1z"/>
<path d="M20370 27896 c-7 -9 -16 -14 -20 -11 -10 6 -40 -39 -40 -60 0 -9 -4
-14 -9 -11 -5 3 -16 -10 -25 -29 -10 -20 -21 -33 -27 -30 -5 4 -9 -4 -9 -17 1
-33 -53 -138 -67 -133 -7 2 -13 -1 -14 -8 0 -7 -4 -3 -8 8 -6 16 -11 10 -24
-30 -20 -58 -20 -58 -5 -49 7 4 8 3 4 -5 -4 -6 -12 -9 -17 -5 -11 6 -42 -63
-34 -76 3 -5 -4 -15 -15 -23 -12 -8 -18 -20 -15 -30 4 -8 2 -18 -4 -22 -7 -3
-8 0 -5 9 3 9 1 16 -5 16 -6 0 -11 -9 -11 -20 0 -11 -6 -20 -12 -20 -9 0 -8
-3 2 -10 8 -5 15 -18 15 -28 0 -20 18 -44 154 -207 589 -700 1293 -1338 2003
-1813 58 -39 109 -76 113 -82 4 -6 1 -19 -6 -28 -11 -14 -10 -13 8 1 24 21 43
16 38 -11 -1 -9 2 -23 8 -30 7 -9 6 -16 -3 -25 -10 -10 -12 -9 -7 5 3 10 2 20
-4 23 -5 4 -6 11 -3 17 5 7 2 8 -5 4 -7 -5 -10 -14 -7 -21 3 -9 -4 -11 -30 -5
-20 5 -32 4 -28 -1 5 -9 -18 -39 -30 -39 -10 0 -46 -39 -46 -50 0 -5 -6 -10
-13 -10 -7 0 -28 -18 -47 -40 -19 -22 -41 -40 -49 -40 -7 0 -24 -11 -36 -24
-15 -17 -30 -23 -43 -19 -17 4 -20 1 -15 -16 4 -15 1 -21 -10 -21 -8 0 -24 -3
-34 -7 -16 -6 -17 -5 -4 13 9 11 5 10 -10 -5 -16 -16 -20 -25 -11 -28 6 -3 12
-8 12 -13 0 -8 -34 -23 -55 -25 -5 0 -10 -4 -10 -10 -1 -5 -6 -20 -13 -33 -18
-31 -5 -48 19 -26 17 15 19 15 19 1 0 -23 -36 -41 -44 -22 -6 17 -53 20 -58 4
-2 -5 -11 -7 -21 -4 -9 4 -14 12 -10 18 3 5 1 7 -5 3 -30 -18 -647 453 -983
750 -293 259 -644 607 -809 802 -51 61 -242 186 -214 140 4 -7 3 -8 -5 -4 -6
4 -9 12 -6 17 4 5 -2 12 -12 16 -10 3 -25 12 -33 19 -15 13 -44 14 -56 1 -4
-3 3 -5 14 -2 20 3 20 3 4 -28 -10 -18 -20 -34 -23 -37 -4 -3 -9 -15 -13 -27
-4 -12 -16 -25 -27 -28 -10 -4 -19 -10 -19 -15 0 -5 -24 -33 -53 -63 -35 -35
-56 -66 -61 -88 -7 -35 -32 -69 -51 -69 -15 0 -55 -72 -55 -99 0 -12 5 -19 10
-16 6 3 10 1 10 -4 0 -6 -4 -11 -10 -11 -5 0 -10 -6 -10 -14 0 -7 -7 -19 -15
-26 -9 -8 -13 -21 -10 -34 4 -12 3 -16 -2 -11 -14 18 -47 41 -39 28 4 -8 2
-13 -4 -13 -6 0 -9 -4 -5 -10 3 -5 12 -7 21 -3 8 3 14 1 12 -5 -5 -15 126
-132 392 -350 128 -105 139 -111 200 -123 101 -18 102 -20 130 -94 l25 -68
170 -130 c94 -71 229 -172 301 -223 163 -117 163 -116 140 -155 -10 -17 -16
-33 -13 -35 3 -3 8 4 12 15 3 12 10 21 15 21 5 0 10 7 12 16 2 13 8 11 31 -10
l28 -26 -27 -33 c-14 -17 -35 -35 -45 -39 -11 -4 -19 -14 -19 -22 0 -9 -9 -20
-19 -26 -25 -13 -44 -13 -36 0 4 6 11 8 16 5 5 -4 9 1 9 9 0 9 3 16 8 16 12 0
92 77 92 88 0 6 -9 10 -19 9 -10 0 -17 -7 -14 -13 2 -7 -5 -15 -16 -19 -12 -3
-21 -11 -21 -16 0 -5 -9 -9 -20 -9 -11 0 -20 -7 -20 -15 0 -8 -7 -15 -15 -15
-8 0 -15 -7 -15 -15 0 -8 -4 -15 -10 -15 -5 0 -10 5 -10 11 0 5 -11 -2 -25
-17 -14 -15 -25 -34 -25 -43 0 -20 -34 -53 -77 -75 -23 -11 -33 -13 -33 -5 0
7 -3 10 -6 7 -6 -7 23 -68 32 -68 3 0 2 5 -2 12 -5 7 -3 8 5 3 9 -5 10 -10 2
-18 -10 -10 27 -86 207 -427 252 -478 662 -1093 1047 -1570 435 -539 964
-1060 1546 -1522 19 -15 27 -25 18 -22 -10 3 -20 0 -25 -7 -4 -7 -3 -10 4 -5
6 3 13 2 16 -2 3 -5 -7 -9 -22 -8 -16 1 -26 -4 -25 -11 2 -7 -3 -10 -10 -7 -8
2 -30 -11 -51 -31 -21 -19 -42 -35 -47 -35 -5 0 -9 -7 -9 -16 0 -11 -6 -15
-20 -11 -13 3 -20 0 -20 -9 0 -7 -6 -11 -13 -8 -7 2 -22 -5 -33 -17 l-19 -22
25 8 c24 7 24 7 5 -9 -11 -8 -25 -16 -31 -16 -5 0 -23 -13 -39 -30 -23 -24
-26 -32 -15 -45 17 -20 3 -19 -18 2 -16 16 -17 15 -21 -3 -2 -10 -9 -23 -17
-27 -8 -4 -14 -15 -14 -22 0 -8 -9 -15 -20 -15 -13 0 -18 -5 -14 -15 4 -8 2
-15 -2 -15 -5 0 -23 -13 -41 -28 -50 -42 -76 -62 -85 -62 -17 0 -245 198 -452
393 -242 230 -527 540 -775 844 -72 89 -87 102 -111 100 -15 -1 -26 -5 -24 -8
2 -4 -6 -15 -17 -25 -19 -17 -21 -18 -30 -1 -13 22 -61 24 -53 2 4 -8 13 -15
21 -15 8 0 11 -4 8 -10 -8 -14 -36 -13 -32 1 1 6 -4 14 -12 17 -10 3 -13 -3
-9 -25 3 -25 0 -32 -23 -42 -15 -7 -46 -30 -68 -52 -23 -21 -48 -39 -56 -39
-8 0 -15 -3 -15 -8 0 -4 -9 -13 -21 -20 -17 -11 -23 -11 -36 0 -13 10 -17 10
-20 1 -3 -7 -11 -13 -19 -13 -8 0 -14 -5 -14 -10 0 -7 7 -7 21 0 17 10 41 7
28 -3 -2 -2 -33 -23 -69 -47 -36 -24 -66 -47 -68 -52 -2 -4 -12 -8 -23 -8 -10
0 -19 -3 -19 -8 0 -4 -9 -13 -21 -20 -17 -11 -23 -11 -36 0 -13 10 -17 10 -20
1 -3 -7 -11 -13 -19 -13 -8 0 -14 -5 -14 -10 0 -7 6 -7 19 0 44 23 43 1 -1
-24 -18 -11 -49 -32 -70 -48 -20 -15 -42 -26 -50 -23 -9 4 -19 -4 -26 -20 -15
-32 -37 -41 -59 -24 -13 11 -17 11 -20 2 -3 -7 -11 -13 -19 -13 -8 0 -14 -4
-14 -10 0 -14 28 -12 33 3 2 6 8 9 12 4 11 -10 -7 -28 -31 -31 -12 -2 -18 -10
-16 -21 3 -16 2 -17 -12 -2 -19 18 -21 31 -4 21 7 -4 8 -3 4 5 -4 6 -11 9 -16
6 -8 -5 -168 222 -242 345 -95 158 -241 396 -258 420 -36 52 -225 400 -290
535 -37 77 -117 241 -178 365 -190 389 -341 761 -458 1130 l-40 125 -200 66
c-206 68 -395 139 -550 207 -65 28 -100 38 -129 36 -31 -3 -34 -2 -15 4 19 6
22 10 11 17 -10 5 -20 1 -31 -13 -10 -12 -21 -18 -25 -14 -3 4 -6 3 -4 -3 3
-14 -11 -45 -21 -45 -5 0 -11 8 -13 18 -3 9 -3 -2 0 -25 3 -26 2 -43 -5 -43
-12 0 -52 -65 -52 -86 0 -8 -4 -14 -10 -14 -5 0 -10 -5 -10 -12 0 -7 -12 -23
-27 -37 l-28 -24 27 5 c20 4 28 0 31 -13 3 -10 -1 -20 -9 -23 -8 -3 -11 0 -8
9 4 9 -1 12 -13 10 -10 -2 -18 -4 -18 -5 0 -1 -10 -3 -23 -6 -15 -3 -21 0 -16
7 4 8 0 7 -15 -1 -16 -8 -56 -8 -159 0 -845 66 -1612 200 -2363 415 l-225 64
-696 7 c-708 7 -723 7 -702 -28 5 -7 7 -27 5 -44 -1 -18 2 -35 8 -39 6 -3 11
-17 11 -31 0 -14 6 -37 14 -52 7 -15 13 -53 13 -84 0 -32 6 -64 13 -73 7 -9
10 -19 6 -22 -4 -4 -11 -1 -16 7 -5 8 -12 11 -17 7 -4 -5 -1 -12 6 -16 8 -5
11 -17 6 -30 -4 -12 -2 -21 4 -21 6 0 11 5 11 10 0 6 5 10 10 10 12 0 13 -33
1 -45 -12 -13 -21 -104 -10 -110 4 -3 13 3 19 12 10 16 11 16 6 -2 -7 -30 -10
-158 -3 -175 3 -8 9 -28 13 -45 l8 -30 6 40 c7 43 21 31 18 -15 -3 -51 2 -91
12 -85 13 8 13 -18 0 -31 -7 -7 -4 -10 12 -9 13 1 28 -1 33 -6 14 -10 416 -73
670 -104 116 -14 228 -28 250 -30 95 -12 516 -45 695 -55 311 -17 1131 -14
1435 4 333 21 872 76 984 102 17 4 22 1 18 -9 -3 -7 1 -14 8 -14 7 0 11 6 8
13 -3 8 7 15 29 18 56 9 68 5 57 -16 -6 -10 -13 -17 -17 -14 -4 2 -8 -37 -10
-87 -2 -55 -7 -94 -14 -98 -7 -4 -14 -37 -16 -73 -2 -36 -8 -66 -13 -66 -5 0
-9 -36 -9 -80 0 -44 -4 -80 -9 -80 -4 0 -14 -54 -21 -120 -7 -66 -17 -120 -21
-120 -5 0 -9 -18 -9 -40 0 -23 -5 -40 -11 -40 -8 0 -10 -17 -7 -50 3 -27 1
-47 -3 -44 -5 3 -6 -2 -3 -10 4 -11 -2 -19 -18 -25 -25 -9 -323 -43 -538 -61
-69 -5 -152 -12 -185 -15 -667 -55 -1585 -38 -2310 41 l-240 26 -135 -26 c-74
-14 -145 -28 -158 -30 -13 -2 -28 -8 -34 -14 -6 -6 -17 -8 -25 -5 -11 4 -13
-1 -7 -23 4 -16 11 -31 16 -32 4 -2 11 -21 14 -43 4 -22 11 -42 15 -45 15 -9
10 -32 -8 -37 -13 -3 -11 -5 6 -6 23 -1 24 -3 17 -58 -14 -126 -17 -231 -7
-288 l10 -60 -3 70 c-2 39 -1 61 1 50 3 -11 10 -26 15 -32 6 -8 7 -40 3 -83
-6 -64 -5 -75 19 -120 14 -27 27 -67 27 -87 1 -21 3 -30 6 -20 11 42 33 3 33
-60 l0 -33 78 0 c509 1 1469 54 2017 110 271 28 306 30 300 19 -4 -5 -1 -9 5
-9 6 0 8 -4 5 -10 -3 -5 0 -10 7 -10 8 0 6 -5 -4 -11 -12 -7 -18 -22 -18 -49
0 -22 -4 -40 -10 -40 -6 0 -10 -47 -10 -120 0 -73 -4 -120 -10 -120 -6 0 -10
-33 -10 -80 0 -47 -4 -80 -10 -80 -5 0 -10 -18 -10 -40 0 -54 -20 -51 -21 3
-1 23 -4 32 -6 21 -2 -12 0 -53 5 -90 10 -75 2 -99 -30 -91 -10 3 -16 2 -13
-3 3 -4 -138 -70 -313 -146 -346 -151 -413 -183 -394 -183 6 -1 12 -5 12 -9 0
-5 -13 -7 -30 -4 -17 2 -30 0 -30 -6 0 -6 -19 -13 -42 -17 -24 -4 -61 -15 -83
-25 -22 -10 -220 -95 -440 -188 -220 -93 -546 -232 -725 -307 -179 -76 -340
-149 -357 -162 -18 -13 -33 -19 -33 -13 0 6 -5 8 -10 5 -6 -4 -8 -10 -5 -15 8
-12 45 -8 38 5 -3 5 -1 5 6 -1 7 -6 14 -27 15 -46 4 -43 13 -59 29 -52 8 3 31
-31 63 -92 74 -145 79 -155 85 -149 3 3 11 -13 18 -35 6 -22 15 -40 19 -40 4
0 19 -29 32 -65 13 -36 28 -65 32 -65 4 0 8 -12 8 -26 0 -20 4 -24 19 -19 11
3 22 1 26 -4 4 -7 -1 -8 -12 -4 -16 6 -16 5 -4 -10 8 -10 22 -15 35 -12 465
102 1012 241 1499 381 180 52 331 94 335 94 4 -1 -4 -7 -18 -15 -19 -11 -21
-14 -7 -15 11 0 17 -8 17 -25 0 -14 5 -25 11 -25 7 0 10 -12 7 -30 -3 -22 -1
-29 10 -28 15 3 57 -60 47 -70 -3 -3 -5 0 -5 6 0 7 -5 12 -10 12 -7 0 -7 -7 0
-20 6 -11 16 -18 21 -14 6 3 13 -3 16 -15 3 -12 12 -21 19 -21 8 0 14 -9 14
-19 0 -11 7 -26 15 -35 8 -8 15 -19 15 -25 0 -6 5 -11 10 -11 14 0 13 -37 -2
-42 -8 -3 -8 -9 0 -24 11 -18 11 -18 12 4 0 15 6 22 20 22 13 0 20 7 20 20 0
17 2 19 14 8 12 -11 12 -15 2 -23 -8 -6 -15 -29 -17 -52 -4 -34 -1 -43 13 -46
11 -3 18 -15 18 -31 0 -14 10 -36 21 -47 17 -17 19 -23 8 -30 -10 -6 -11 -9
-1 -9 6 0 12 -5 12 -11 0 -6 7 -17 15 -25 20 -20 19 -10 -1 21 -15 23 -15 25
0 25 9 0 16 -6 16 -13 0 -21 31 -81 47 -90 7 -4 13 -15 13 -22 0 -8 5 -15 10
-15 6 0 10 -6 10 -13 0 -22 31 -78 46 -84 9 -3 14 -20 14 -45 0 -31 3 -38 18
-36 11 2 18 -4 20 -19 4 -26 38 -32 44 -9 2 12 7 11 25 -4 19 -15 20 -19 7
-24 -8 -3 -12 -2 -9 4 3 6 -1 10 -9 10 -9 0 -16 -9 -16 -20 0 -23 12 -25 42
-9 56 30 -8 -21 -160 -127 -877 -616 -1326 -935 -1330 -946 -2 -4 -10 -8 -18
-8 -8 0 -14 -5 -14 -11 0 -5 4 -8 9 -4 5 3 13 0 17 -6 4 -8 3 -9 -4 -5 -17 10
-14 -3 8 -49 11 -22 19 -45 20 -51 0 -5 16 -25 35 -44 24 -24 31 -36 23 -41
-8 -5 -4 -11 14 -18 14 -5 36 -25 49 -43 12 -18 38 -46 56 -61 18 -16 31 -33
28 -38 -4 -5 5 -20 18 -35 l24 -25 59 16 c179 52 721 260 1038 399 114 50 153
63 163 54 11 -8 12 -7 7 6 -8 20 14 21 40 1 19 -15 19 -15 -5 -15 -18 0 -20
-3 -10 -9 8 -5 24 -6 36 -1 19 7 21 5 17 -16 -2 -13 -9 -21 -15 -17 -6 3 -7 1
-3 -5 4 -6 13 -9 21 -5 9 3 15 -1 15 -11 0 -9 5 -16 10 -16 6 0 10 -9 10 -20
0 -14 5 -18 18 -13 9 4 20 11 24 17 5 6 5 -4 2 -21 -4 -22 -3 -33 5 -33 7 0 9
-5 6 -10 -6 -10 60 -80 76 -80 5 0 9 10 10 23 1 19 2 19 14 -8 8 -19 10 -34 4
-41 -5 -6 -7 -19 -3 -28 5 -12 10 -13 25 -5 11 5 17 15 13 22 -5 9 -4 9 5 1
10 -9 10 -17 2 -32 -14 -27 -14 -42 2 -42 7 0 18 -9 24 -19 14 -23 78 -55 91
-47 6 3 9 -8 8 -27 0 -17 -7 -35 -15 -38 -12 -5 -12 -6 1 -11 9 -4 27 0 42 7
24 13 27 12 42 -10 13 -19 13 -27 2 -44 -15 -25 -7 -35 22 -26 18 6 19 9 8 22
-12 14 -11 15 7 4 18 -11 44 -3 200 65 421 183 942 461 1335 712 l85 54 -35
-38 c-19 -22 -116 -122 -215 -224 -599 -614 -1185 -1223 -1185 -1232 0 -14
284 135 575 300 420 238 835 502 1349 856 8 6 23 1 43 -14 17 -12 37 -20 45
-17 9 3 8 7 -6 13 -27 11 -57 42 -47 49 5 2 12 -2 15 -11 4 -9 9 -14 12 -11 3
3 16 -4 28 -16 19 -19 20 -24 8 -36 -12 -12 -18 -12 -43 3 -16 10 -29 12 -29
7 0 -6 7 -11 15 -11 8 0 15 -4 15 -9 0 -5 9 -11 20 -14 11 -3 20 -1 20 4 0 5
7 9 15 9 8 0 15 5 15 11 0 5 5 7 11 3 7 -4 8 -9 1 -13 -5 -3 -12 -15 -14 -26
-2 -14 2 -19 15 -17 9 2 17 -2 17 -8 0 -5 11 -10 25 -10 15 0 25 -6 25 -14 0
-21 17 -28 39 -17 16 9 18 8 14 -9 -4 -14 0 -20 11 -20 9 0 16 4 16 9 0 10 39
2 55 -11 5 -5 19 -15 30 -23 19 -14 19 -14 -6 -15 -14 0 -28 -3 -32 -6 -9 -10
35 -42 50 -37 7 3 13 0 13 -6 0 -6 12 -11 26 -11 22 0 25 2 14 15 -7 8 -19 15
-26 15 -8 0 -14 5 -14 10 0 14 7 13 35 -6 19 -13 23 -22 18 -45 -5 -27 -4 -28
25 -20 26 8 29 7 25 -10 -4 -13 0 -19 11 -19 9 0 16 5 16 10 0 17 34 10 63
-14 l28 -23 -30 5 c-17 2 -31 8 -31 13 0 14 -20 11 -36 -6 -14 -13 -14 -15 0
-15 9 0 16 -4 16 -10 0 -5 5 -10 11 -10 8 0 7 6 -2 16 -12 15 -11 16 11 9 38
-11 62 -37 56 -58 -4 -18 -3 -18 18 2 13 12 28 21 34 19 13 -4 284 194 442
323 69 56 132 107 140 113 7 6 -7 -18 -32 -54 -25 -36 -144 -207 -264 -380
-121 -173 -286 -410 -367 -526 -81 -117 -147 -215 -147 -219 0 -16 355 240
565 409 414 333 849 753 1189 1151 38 44 78 91 90 105 12 14 39 48 61 75 21
28 42 54 46 59 4 5 7 -5 7 -21 -1 -17 2 -35 6 -42 4 -6 2 -11 -4 -11 -7 0 -9
-8 -5 -19 3 -11 1 -22 -4 -26 -7 -4 -8 1 -4 12 3 10 2 15 -2 10 -5 -4 -18 1
-29 10 -21 18 -21 18 -5 -2 24 -29 30 -56 20 -90 l-8 -30 -8 29 -8 29 -13 -24
c-13 -25 -1 -55 17 -43 5 3 9 0 9 -5 0 -6 -5 -11 -11 -11 -6 0 -17 -7 -25 -15
-12 -11 -12 -19 -4 -35 6 -12 9 -26 6 -33 -2 -7 -5 -4 -5 6 -1 23 -18 22 -25
-3 -3 -11 -9 -30 -12 -42 -6 -20 -5 -21 9 -10 10 9 17 10 22 2 3 -5 -1 -10 -9
-10 -20 0 -64 -62 -48 -68 9 -3 9 -9 1 -24 -8 -15 -8 -22 1 -28 6 -4 10 -18 8
-31 -3 -22 -3 -23 -22 -3 -17 16 -19 16 -13 2 3 -10 2 -20 -3 -23 -6 -4 -10
-15 -10 -25 0 -10 -7 -25 -15 -33 -16 -17 -10 -27 16 -27 16 0 16 -3 2 -40
-11 -26 -19 -36 -24 -29 -4 7 -3 24 3 38 6 17 6 23 -1 16 -17 -17 -31 -99 -19
-106 6 -4 8 -19 4 -35 -4 -16 -8 -38 -9 -49 -2 -15 -8 -19 -26 -17 -15 2 -21
0 -16 -7 3 -6 -3 -24 -14 -40 -11 -15 -18 -31 -15 -34 3 -3 -1 -18 -10 -34 -8
-16 -13 -41 -12 -56 2 -15 -1 -27 -5 -27 -14 0 -11 -17 6 -33 13 -13 13 -16
-1 -21 -10 -4 -13 -2 -8 6 5 7 3 8 -6 3 -10 -6 -9 -11 5 -21 23 -17 14 -28
-86 -105 l-77 -58 -62 -168 c-224 -607 -442 -1336 -580 -1938 -69 -300 -73
-315 -83 -315 -4 0 -5 -10 -2 -22 6 -15 1 -26 -16 -40 -15 -12 -18 -16 -6 -12
21 8 23 -12 1 -20 -13 -5 -14 -9 -4 -21 10 -13 9 -19 -5 -35 -12 -13 -14 -20
-5 -20 9 0 10 -10 5 -37 -4 -21 -9 -42 -12 -46 -3 -5 -7 -33 -9 -64 -4 -64
-17 -89 -14 -28 3 72 2 75 -31 75 -16 0 -28 4 -24 9 3 5 1 13 -5 16 -6 4 -9 1
-8 -7 2 -7 -2 -12 -9 -11 -7 2 -10 -8 -8 -25 3 -31 -12 -55 -29 -45 -6 4 -5
-1 3 -10 14 -18 26 -23 16 -8 -3 5 -1 12 5 16 6 4 10 -6 10 -25 0 -17 -4 -29
-9 -26 -5 3 -11 -1 -14 -9 -4 -9 -1 -12 9 -8 8 3 14 -1 14 -11 0 -17 8 -19 51
-16 27 1 27 1 17 -47 -6 -26 -10 -59 -9 -73 1 -20 -1 -22 -9 -10 -8 11 -9 4
-4 -24 6 -32 3 -42 -11 -53 -11 -7 -14 -13 -8 -13 7 0 11 -9 10 -20 -1 -11 -4
-20 -7 -20 -4 0 -5 -14 -2 -30 2 -17 -1 -37 -8 -45 -10 -12 -10 -15 0 -15 9 0
9 -4 3 -12 -6 -7 -9 -27 -8 -44 2 -17 -1 -38 -6 -45 -5 -8 -8 84 -8 215 1 152
-3 232 -10 239 -6 6 -11 7 -11 3 0 -5 -7 -3 -15 4 -10 9 -15 9 -15 1 0 -6 -8
-11 -18 -11 -15 0 -18 -7 -15 -42 3 -33 1 -40 -9 -30 -7 7 -17 12 -22 12 -6 0
-4 -5 4 -11 12 -8 12 -10 -5 -8 -34 2 -45 -1 -45 -13 0 -6 -8 -21 -17 -32 -13
-15 -14 -17 -2 -9 13 11 15 5 15 -48 l0 -61 -40 4 -41 4 1 -82 2 -82 -41 0
c-22 -1 -45 -6 -51 -13 -8 -9 -8 -10 1 -5 10 5 12 -9 10 -56 -2 -68 -12 -88
-40 -82 -10 1 -32 -10 -49 -25 -22 -19 -26 -28 -15 -28 9 0 13 5 10 10 -3 6
-1 7 5 3 7 -4 12 -15 12 -25 0 -13 -7 -18 -27 -17 -45 2 -61 -10 -55 -40 3
-18 1 -25 -6 -20 -6 3 -14 2 -17 -4 -4 -6 -1 -9 6 -8 8 2 14 -13 17 -43 l3
-47 -44 2 c-42 2 -45 0 -42 -24 3 -29 -12 -53 -29 -43 -6 4 -5 -1 3 -10 14
-18 26 -23 16 -8 -3 5 -1 12 5 16 6 4 10 -6 10 -25 0 -17 -4 -29 -9 -26 -5 3
-11 -1 -14 -9 -4 -9 -1 -12 9 -8 8 3 14 -1 14 -10 0 -16 -16 -17 -37 -4 -8 5
-13 4 -13 -2 0 -6 -8 -11 -18 -11 -15 0 -18 -7 -15 -42 3 -33 1 -40 -9 -30 -7
7 -17 12 -22 12 -6 0 -4 -5 4 -11 12 -8 12 -10 -5 -8 -34 2 -45 -1 -45 -13 0
-6 -8 -21 -17 -32 -14 -16 -15 -18 -2 -8 14 11 17 9 17 -13 0 -13 -5 -22 -10
-19 -6 4 -5 -3 1 -14 14 -26 14 -33 0 -29 -6 1 -14 -5 -16 -13 -4 -13 -3 -13
6 0 9 12 11 12 17 -3 4 -11 17 -17 36 -17 17 0 27 -4 23 -10 -3 -6 1 -7 9 -4
13 5 16 -1 16 -30 0 -31 3 -36 23 -36 29 0 57 -29 57 -58 0 -16 6 -22 23 -22
27 0 53 -25 59 -55 2 -13 12 -21 30 -23 15 -2 35 -13 44 -25 15 -21 16 -21 10
-1 -3 11 -2 42 3 69 5 27 5 57 1 65 -5 9 -5 22 0 30 5 9 5 17 -1 21 -6 4 -4
19 7 42 13 27 24 37 41 37 21 0 23 5 25 48 1 26 1 63 0 82 -1 26 1 30 7 16 4
-11 10 -15 14 -10 8 14 -3 54 -14 54 -5 0 -9 11 -9 25 0 28 20 35 20 8 1 -17
1 -17 14 0 17 22 83 23 108 0 17 -15 19 -15 36 0 27 25 62 22 62 -5 0 -12 -7
-30 -17 -40 -14 -16 -14 -18 0 -18 8 0 18 -6 21 -12 3 -7 4 22 2 65 -3 63 -1
79 12 86 12 7 19 3 29 -16 17 -34 16 -43 -4 -38 -16 3 -18 -4 -15 -55 3 -46 7
-58 18 -53 12 4 14 -20 14 -150 0 -85 3 -168 6 -185 l6 -31 104 90 c57 50 104
87 104 82 0 -4 7 2 15 15 26 36 408 342 390 312 -4 -8 8 2 29 23 34 34 48 42
69 38 5 -1 6 3 3 8 -3 5 1 14 9 21 8 7 15 9 15 5 0 -4 9 3 21 16 11 13 18 17
14 9 -4 -8 2 -5 12 7 30 37 114 92 132 86 12 -4 13 -3 3 5 -10 7 -7 13 13 26
14 9 31 14 37 10 6 -4 8 -3 5 3 -6 10 44 53 63 53 5 0 10 5 10 11 0 8 5 7 15
-1 13 -11 14 -10 9 3 -4 11 5 20 29 32 20 9 38 23 41 30 4 11 249 177 751 508
55 36 156 103 225 148 69 46 304 201 522 345 977 645 1537 1078 2052 1584 391
384 646 687 892 1060 344 521 571 1037 716 1622 l53 217 75 7 c97 9 379 -2
545 -21 734 -85 1349 -358 1801 -798 l112 -108 -15 78 c-8 43 -28 132 -44 198
-108 431 -253 738 -424 894 l-47 44 36 116 c69 220 80 298 80 556 1 203 -2
242 -22 333 -45 206 -37 194 -197 289 -77 46 -228 128 -335 182 -558 280
-1142 440 -1784 491 -167 13 -584 13 -757 0 -695 -54 -1386 -231 -2060 -530
-111 -49 -207 -86 -212 -83 -6 3 -7 1 -4 -4 4 -6 0 -14 -9 -17 -8 -3 -13 -2
-9 3 3 5 -3 8 -12 6 -10 -2 -21 -4 -25 -4 -4 -1 -5 -9 -1 -18 3 -10 2 -15 -2
-10 -5 4 -19 0 -33 -9 -13 -9 -22 -12 -18 -6 3 5 -2 16 -11 23 -15 12 -16 11
-11 -9 5 -18 4 -21 -7 -12 -15 12 -36 10 -48 -5 -5 -6 -7 -4 -4 5 2 8 13 20
25 26 13 6 26 15 30 19 4 5 1 5 -5 1 -25 -14 -12 5 69 101 55 66 69 87 41 63
-22 -19 -38 -38 -36 -41 1 -4 -4 -9 -12 -12 -9 -4 -12 -1 -9 7 7 19 -95 20
-161 2 -62 -16 -169 -10 -161 10 3 7 1 14 -3 16 -12 4 -49 305 -67 548 -12
151 -15 296 -12 548 3 188 1 342 -4 342 -4 0 -8 -8 -8 -17 0 -15 -2 -15 -14 2
-12 16 -17 17 -37 7 l-24 -12 28 3 c15 3 27 0 27 -4 0 -5 -6 -9 -13 -9 -30 0
-231 31 -236 36 -3 4 32 4 79 1 65 -4 73 -4 35 3 -27 4 -101 9 -162 9 -64 1
-113 5 -113 10 0 6 17 12 38 14 20 2 -1 2 -46 -1 -76 -4 -411 27 -384 36 6 2
8 17 6 35 -13 84 128 880 195 1107 11 36 40 142 66 235 84 312 230 743 294
873 16 31 39 83 51 114 l23 57 -50 83 c-82 136 -103 175 -195 353 -50 99 -92
169 -99 167 -10 -2 -10 0 0 12 8 10 9 16 1 21 -5 3 -10 3 -10 -2 0 -4 -5 -1
-11 7 -9 13 -10 12 -5 -2 4 -12 0 -17 -12 -16 -9 1 -37 0 -62 -1 -37 -1 -42
-3 -27 -12 10 -6 34 -9 53 -7 43 5 45 -8 2 -14 -18 -3 -41 -8 -50 -13 -13 -5
-18 -3 -18 9 0 29 -69 15 -105 -21 -13 -13 -20 -14 -23 -5 -2 6 -10 12 -17 12
-18 0 -310 302 -464 480 -288 332 -481 586 -712 935 -87 132 -167 249 -177
260 -10 11 -142 130 -293 265 -278 249 -366 328 -430 388 -31 29 -37 31 -49
18z m-270 -452 c0 -8 -5 -12 -10 -9 -6 4 -8 11 -5 16 9 14 15 11 15 -7z m-551
-1187 c-2 -1 -12 -9 -22 -16 -15 -12 -17 -12 -11 3 3 9 13 16 22 16 8 0 13 -1
11 -3z m3061 -711 c0 -2 -7 -7 -16 -10 -8 -3 -12 -2 -9 4 6 10 25 14 25 6z
m-231 -402 c-6 -8 -15 -12 -18 -8 -3 4 0 9 7 11 6 3 9 10 6 15 -4 7 -2 8 5 4
9 -6 9 -11 0 -22z m-59 -39 c0 -9 -6 -12 -15 -9 -8 4 -15 1 -15 -6 0 -6 -5 -8
-11 -5 -6 5 -4 12 8 21 23 18 33 17 33 -1z m-76 -54 c3 -4 -15 -21 -40 -37
-25 -16 -57 -44 -70 -62 -14 -18 -29 -30 -34 -27 -8 5 66 85 79 85 4 0 18 11
31 25 26 28 27 28 34 16z m-209 -187 c-16 -13 -32 -21 -37 -18 -4 3 -17 -6
-28 -18 -47 -52 -65 -68 -75 -68 -5 0 -4 4 4 9 8 5 10 14 6 21 -5 9 -4 11 3 6
7 -4 12 -2 12 3 0 6 7 11 15 11 8 0 15 4 15 9 0 17 32 42 46 37 8 -3 14 -1 14
5 0 17 24 37 39 31 10 -4 7 -11 -14 -28z m-209 -166 c0 -10 -5 -17 -10 -15
-14 5 -16 34 -2 34 6 0 12 -9 12 -19z m-8151 -98 c3 -5 1 -10 -4 -10 -6 0 -11
5 -11 10 0 6 2 10 4 10 3 0 8 -4 11 -10z m6915 0 c0 -5 -4 -10 -10 -10 -5 0
-10 5 -10 10 0 6 5 10 10 10 6 0 10 -4 10 -10z m-30 -30 c0 -5 -4 -10 -10 -10
-5 0 -10 5 -10 10 0 6 5 10 10 10 6 0 10 -4 10 -10z m-2547 -270 c-8 -17 -19
-28 -24 -24 -11 7 21 52 38 54 1 0 -5 -14 -14 -30z m-44 -74 c-7 -14 -16 -26
-21 -26 -5 0 -1 13 8 30 21 35 30 33 13 -4z m-33 -75 c-4 -6 -12 -11 -18 -11
-7 0 -7 4 1 13 6 8 9 16 7 19 -1 3 1 2 7 -2 5 -5 6 -13 3 -19z m-4186 -13 c0
-19 -2 -20 -10 -8 -13 19 -13 30 0 30 6 0 10 -10 10 -22z m10 -173 c-7 -45 -7
-46 -9 -13 -1 32 8 74 14 66 1 -2 -1 -25 -5 -53z m63 -115 c3 -11 1 -18 -4
-14 -5 3 -9 12 -9 20 0 20 7 17 13 -6z m4237 -245 c-5 -6 -10 -28 -12 -50 -3
-40 -4 -40 -8 10 -4 43 -2 51 12 51 11 0 14 -4 8 -11z m-37 -145 c8 -68 -2
-180 -14 -180 -5 0 -10 -19 -11 -42 l-1 -43 -7 45 -6 45 -6 -40 c-3 -22 -3 -2
0 45 2 47 8 93 13 102 5 9 9 42 9 72 0 74 16 71 23 -4z m-63 -450 l-19 -135 5
95 c7 146 15 206 24 190 5 -8 0 -76 -10 -150z m-29 -240 l-6 -55 -6 45 -6 45
-1 -42 c-1 -24 -7 -43 -13 -43 -14 0 -2 153 12 158 5 2 10 22 11 45 1 30 3 21
8 -28 4 -38 4 -95 1 -125z m-47 -92 c-3 -4 -12 -8 -20 -8 -8 0 -13 4 -10 8 3
5 12 9 20 9 8 0 13 -4 10 -9z m-3604 -94 c0 -7 -6 -16 -12 -20 -7 -4 -10 -4
-6 1 4 4 3 13 -2 20 -7 8 -5 12 5 12 8 0 15 -6 15 -13z m-44 -20 c14 5 15 4 4
-9 -17 -20 -23 -19 -39 8 -13 20 -13 21 2 8 9 -7 24 -10 33 -7z m61 -336 c-3
-7 -5 -2 -5 12 0 14 2 19 5 13 2 -7 2 -19 0 -25z m6 -103 c4 -8 2 -17 -3 -20
-6 -4 -10 3 -10 14 0 25 6 27 13 6z m24 -187 c-2 -13 -4 -3 -4 22 0 25 2 35 4
23 2 -13 2 -33 0 -45z m20 -90 c-3 -8 -6 -5 -6 6 -1 11 2 17 5 13 3 -3 4 -12
1 -19z m2473 -54 c0 -16 -16 -19 -25 -4 -4 6 -11 7 -17 4 -6 -4 -8 -3 -5 2 9
16 47 14 47 -2z m-14 -63 c-3 -20 -6 -45 -6 -56 0 -15 -2 -17 -9 -6 -5 8 -8
-11 -8 -50 1 -35 -4 -91 -10 -124 l-12 -60 4 80 c2 44 6 98 8 120 1 22 4 61 5
86 2 34 6 46 18 46 13 0 15 -7 10 -36z m-70 -527 c-3 -8 -10 -12 -16 -9 -6 4
-10 -10 -10 -34 0 -22 -3 -42 -8 -45 -4 -2 -1 53 8 122 l15 127 8 -73 c5 -40
6 -79 3 -88z m6225 -555 c-5 -13 -10 -19 -10 -12 -1 15 10 45 15 40 3 -2 0
-15 -5 -28z m-6496 -836 c9 -20 17 -46 19 -57 2 -12 1 -15 -1 -8 -3 6 -9 12
-14 12 -5 0 -9 6 -9 14 0 7 -6 19 -14 25 -15 13 -18 51 -4 51 4 0 15 -17 23
-37z m69 -135 c-3 -4 4 -16 14 -26 24 -24 36 -55 20 -50 -6 2 -24 26 -39 54
-32 57 -38 92 -10 54 11 -13 17 -28 15 -32z m146 -241 c0 -5 -7 -2 -15 7 -8 8
-15 20 -15 27 0 14 29 -20 30 -34z m23 -62 c-7 -21 -13 -19 -13 6 0 11 4 18
10 14 5 -3 7 -12 3 -20z m67 -107 c0 -9 6 -21 13 -25 8 -4 19 -24 26 -43 l11
-34 -20 21 c-11 12 -20 27 -20 32 0 6 -11 30 -25 55 -30 53 -33 84 -5 41 11
-16 20 -38 20 -47z m94 -157 c-5 -6 -24 10 -35 32 -10 20 -9 20 14 -3 13 -14
23 -27 21 -29z m30 -48 c14 -28 14 -32 1 -27 -8 4 -15 15 -15 26 0 10 -4 16
-10 13 -6 -3 -7 1 -4 10 8 19 7 19 28 -22z m193 -1180 c-4 -3 1 -12 11 -20 15
-11 13 -12 -10 -2 -31 14 -37 29 -11 29 9 0 13 -3 10 -7z m53 -86 c0 -5 -4 -5
-10 -2 -5 3 -10 14 -10 23 0 15 2 15 10 2 5 -8 10 -19 10 -23z m30 -27 c0 -5
-2 -10 -4 -10 -3 0 -8 5 -11 10 -3 6 -1 10 4 10 6 0 11 -4 11 -10z m51 -67
c13 -16 12 -17 -3 -4 -17 13 -22 21 -14 21 2 0 10 -8 17 -17z m2672 0 c19 -9
27 -18 19 -21 -7 -2 -21 3 -30 11 -9 8 -24 17 -32 20 -10 4 -11 6 -2 6 7 1 27
-6 45 -16z m1930 -175 c-3 -18 -10 -44 -14 -58 -6 -21 -7 -18 -8 17 -1 45 6
73 20 73 5 0 6 -15 2 -32z m-4419 -45 c19 -23 19 -23 -2 -23 -17 0 -22 6 -22
27 0 14 1 24 3 22 1 -2 11 -14 21 -26z m4389 -63 c-3 -12 -8 -19 -11 -16 -5 6
5 36 12 36 2 0 2 -9 -1 -20z m-1066 -3622 c-2 -13 -4 -5 -4 17 -1 22 1 32 4
23 2 -10 2 -28 0 -40z m-16 -167 c-2 -25 -8 -49 -15 -53 -7 -5 -7 -8 3 -8 11
0 11 -3 0 -17 -10 -11 -10 -14 -1 -9 17 10 15 -4 -5 -26 -9 -11 -11 -18 -5
-18 8 0 12 -18 12 -47 0 -33 -3 -43 -9 -33 -6 8 -7 18 -5 22 3 4 1 8 -5 8 -5
0 -13 -4 -16 -10 -17 -27 -25 -1 -24 81 1 79 2 88 14 72 13 -17 14 -17 8 5 -3
12 -8 22 -12 22 -4 0 -8 13 -9 30 -2 29 -1 30 35 28 l38 -1 -4 -46z m-371
-518 c0 -5 -5 -15 -10 -23 -8 -12 -10 -11 -10 8 0 12 5 22 10 22 6 0 10 -3 10
-7z"/>
<path d="M19405 26170 c-3 -5 1 -10 9 -10 9 0 16 5 16 10 0 6 -4 10 -9 10 -6
0 -13 -4 -16 -10z"/>
<path d="M19287 26033 c-13 -12 -7 -33 8 -33 8 0 15 9 15 20 0 20 -11 26 -23
13z"/>
<path d="M19295 25970 c-3 -5 -1 -10 4 -10 6 0 11 5 11 10 0 6 -2 10 -4 10 -3
0 -8 -4 -11 -10z"/>
<path d="M22531 25586 c-10 -11 -9 -14 1 -12 14 2 23 15 15 22 -2 2 -10 -2
-16 -10z"/>
<path d="M22062 25003 c-7 -2 -17 -14 -23 -26 -9 -19 -8 -20 3 -7 8 8 20 21
28 28 15 13 13 14 -8 5z"/>
<path d="M21810 24790 c-8 -5 -12 -12 -9 -15 4 -3 12 1 19 10 14 17 11 19 -10
5z"/>
<path d="M13600 24619 c-12 -9 -10 -10 8 -6 17 4 21 2 14 -6 -9 -11 -8 -44 1
-53 2 -3 10 2 17 11 11 13 10 14 -6 8 -15 -5 -17 -4 -8 8 22 28 24 49 6 49 -9
0 -24 -5 -32 -11z"/>
<path d="M13663 24440 c0 -25 2 -35 4 -22 2 12 2 32 0 45 -2 12 -4 2 -4 -23z"/>
<path d="M18003 24445 c0 -7 6 -11 14 -8 7 3 13 6 13 8 0 2 -6 5 -13 8 -8 3
-14 -1 -14 -8z"/>
<path d="M13682 24380 c0 -14 2 -19 5 -12 2 6 2 18 0 25 -3 6 -5 1 -5 -13z"/>
<path d="M17911 24304 c0 -11 3 -14 6 -6 3 7 2 16 -1 19 -3 4 -6 -2 -5 -13z"/>
<path d="M17901 23514 c0 -11 3 -14 6 -6 3 7 2 16 -1 19 -3 4 -6 -2 -5 -13z"/>
<path d="M17933 23480 c0 -25 2 -35 4 -22 2 12 2 32 0 45 -2 12 -4 2 -4 -23z"/>
<path d="M17850 23000 c0 -22 5 -40 10 -40 6 0 10 18 10 40 0 22 -4 40 -10 40
-5 0 -10 -18 -10 -40z"/>
<path d="M17821 22944 c0 -11 3 -14 6 -6 3 7 2 16 -1 19 -3 4 -6 -2 -5 -13z"/>
<path d="M22640 22550 c0 -5 18 -10 40 -10 22 0 40 5 40 10 0 6 -18 10 -40 10
-22 0 -40 -4 -40 -10z"/>
<path d="M14230 21888 c0 -36 4 -35 14 5 4 16 2 27 -4 27 -5 0 -10 -14 -10
-32z"/>
<path d="M14250 21880 c0 -5 5 -10 10 -10 6 0 10 5 10 10 0 6 -4 10 -10 10 -5
0 -10 -4 -10 -10z"/>
<path d="M14255 21765 c-4 -42 -5 -79 -2 -81 2 -3 8 29 12 71 4 42 5 79 2 81
-2 3 -8 -29 -12 -71z"/>
<path d="M21316 21814 c-3 -8 -9 -13 -14 -10 -4 2 -9 -4 -9 -15 -1 -10 3 -19
9 -19 6 0 8 3 5 7 -4 3 -2 12 4 19 9 11 16 11 33 2 21 -11 21 -11 2 11 -23 25
-22 25 -30 5z"/>
<path d="M14225 21789 c-4 -12 -2 -26 4 -32 8 -8 11 -2 11 21 0 37 -6 41 -15
11z"/>
<path d="M16710 21799 c0 -5 -4 -7 -10 -4 -5 3 -10 1 -10 -5 0 -6 -5 -8 -12
-4 -7 4 -8 3 -4 -4 5 -9 13 -9 26 -2 23 12 35 30 21 30 -6 0 -11 -5 -11 -11z"/>
<path d="M21120 21665 c0 -8 5 -15 10 -15 6 0 10 7 10 15 0 8 -4 15 -10 15 -5
0 -10 -7 -10 -15z"/>
<path d="M21000 21590 c0 -5 6 -10 14 -10 8 0 18 5 21 10 3 6 -3 10 -14 10
-12 0 -21 -4 -21 -10z"/>
<path d="M20883 21505 c0 -8 4 -15 9 -15 4 0 8 7 8 15 0 8 -4 15 -8 15 -5 0
-9 -7 -9 -15z"/>
<path d="M20845 21470 c-3 -5 -1 -10 4 -10 6 0 11 5 11 10 0 6 -2 10 -4 10 -3
0 -8 -4 -11 -10z"/>
<path d="M20760 21430 c0 -5 6 -10 14 -10 8 0 18 5 21 10 3 6 -3 10 -14 10
-12 0 -21 -4 -21 -10z"/>
<path d="M20643 21345 c0 -8 4 -15 9 -15 4 0 8 7 8 15 0 8 -4 15 -8 15 -5 0
-9 -7 -9 -15z"/>
<path d="M20605 21310 c-3 -5 -1 -10 4 -10 6 0 11 5 11 10 0 6 -2 10 -4 10 -3
0 -8 -4 -11 -10z"/>
<path d="M16621 21274 c0 -11 3 -14 6 -6 3 7 2 16 -1 19 -3 4 -6 -2 -5 -13z"/>
<path d="M20520 21276 c0 -9 30 -14 35 -6 4 6 -3 10 -14 10 -12 0 -21 -2 -21
-4z"/>
<path d="M16626 21112 c-3 -5 1 -9 9 -9 8 0 12 4 9 9 -3 4 -7 8 -9 8 -2 0 -6
-4 -9 -8z"/>
<path d="M23715 20893 c2 -10 4 -20 4 -23 2 -7 21 23 21 33 0 4 -6 7 -14 7 -8
0 -13 -8 -11 -17z"/>
<path d="M14390 19611 c0 -6 4 -13 10 -16 6 -3 7 1 4 9 -7 18 -14 21 -14 7z"/>
<path d="M14426 19535 c-3 -8 -1 -15 4 -15 6 0 10 7 10 15 0 8 -2 15 -4 15 -2
0 -6 -7 -10 -15z"/>
<path d="M16791 19054 c0 -11 3 -14 6 -6 3 7 2 16 -1 19 -3 4 -6 -2 -5 -13z"/>
<path d="M16847 18934 c9 -15 19 -22 21 -15 2 6 -3 18 -11 26 -24 24 -29 18
-10 -11z"/>
<path d="M22050 18405 c-7 -9 -8 -15 -2 -15 5 0 12 7 16 15 3 8 4 15 2 15 -2
0 -9 -7 -16 -15z"/>
<path d="M21834 17656 c-9 -15 -14 -29 -10 -33 3 -3 6 -1 6 6 0 7 4 10 9 6 5
-3 13 4 16 16 10 31 -1 34 -21 5z"/>
<path d="M19962 17605 c-11 -12 -10 -15 2 -15 8 0 16 -5 18 -11 3 -9 10 -9 27
0 18 10 20 15 10 27 -15 18 -40 17 -57 -1z m38 -15 c0 -5 -2 -10 -4 -10 -3 0
-8 5 -11 10 -3 6 -1 10 4 10 6 0 11 -4 11 -10z"/>
<path d="M17255 17580 c10 -11 20 -18 23 -15 7 6 -18 35 -31 35 -5 0 -2 -9 8
-20z"/>
<path d="M17506 17353 c-3 -3 -6 -15 -6 -25 0 -12 -4 -16 -12 -12 -6 4 -8 3
-5 -3 9 -14 50 -9 55 7 3 7 0 10 -7 6 -7 -4 -9 -2 -5 7 6 16 -9 31 -20 20z"/>
<path d="M21740 17309 c0 -5 5 -7 10 -4 6 3 10 8 10 11 0 2 -4 4 -10 4 -5 0
-10 -5 -10 -11z"/>
<path d="M20787 14584 c-3 -3 -3 -12 0 -20 6 -16 33 -19 33 -4 0 6 -6 9 -12 8
-7 -2 -12 3 -10 10 2 13 -1 15 -11 6z"/>
<path d="M20780 14510 c-12 -7 -10 -9 7 -7 12 0 19 5 17 9 -6 10 -6 10 -24 -2z"/>
<path d="M20660 14396 c0 -2 8 -10 18 -17 15 -13 16 -12 3 4 -13 16 -21 21
-21 13z"/>
<path d="M20653 14359 c-2 -23 3 -25 10 -4 4 8 3 16 -1 19 -4 3 -9 -4 -9 -15z"/>
<path d="M20610 14320 c-6 -11 -8 -20 -6 -20 3 0 10 9 16 20 6 11 8 20 6 20
-3 0 -10 -9 -16 -20z"/>
<path d="M20763 14295 c0 -8 4 -12 9 -9 5 3 6 10 3 15 -9 13 -12 11 -12 -6z"/>
<path d="M20760 14255 c-7 -9 -10 -18 -7 -21 3 -3 10 4 17 15 13 25 8 27 -10
6z"/>
<path d="M20520 14100 c-13 -8 -12 -10 3 -10 9 0 17 5 17 10 0 12 -1 12 -20 0z"/>
<path d="M20411 13961 c-8 -5 -9 -11 -3 -15 5 -3 12 1 16 9 6 17 6 18 -13 6z"/>
<path d="M20365 13880 c-3 -5 -1 -10 4 -10 6 0 11 5 11 10 0 6 -2 10 -4 10 -3
0 -8 -4 -11 -10z"/>
<path d="M20336 13852 c-3 -5 1 -9 9 -9 8 0 15 4 15 9 0 4 -4 8 -9 8 -6 0 -12
-4 -15 -8z"/>
<path d="M20341 13816 c-10 -11 -10 -16 -2 -16 7 0 10 -4 6 -9 -3 -5 0 -13 6
-17 7 -4 9 -3 6 3 -8 13 17 36 28 25 5 -4 5 -1 1 6 -4 7 -11 10 -16 7 -4 -3
-10 0 -12 6 -2 7 -9 5 -17 -5z"/>
<path d="M21800 13719 c0 -5 5 -7 10 -4 6 3 10 8 10 11 0 2 -4 4 -10 4 -5 0
-10 -5 -10 -11z"/>
<path d="M21871 13723 c4 -20 -2 -27 -12 -13 -8 12 -10 12 -7 1 5 -19 38 -23
38 -6 0 8 -5 17 -10 20 -6 4 -10 3 -9 -2z"/>
<path d="M21831 13693 c-1 -8 -15 -13 -36 -13 -24 0 -37 -6 -45 -20 -8 -14 -8
-20 0 -20 6 0 10 -8 8 -17 -2 -15 5 -19 40 -21 l42 -3 0 -45 0 -45 38 7 c35 7
61 27 62 49 0 6 -5 3 -10 -5 -7 -11 -10 -2 -10 33 0 27 4 46 9 43 5 -4 4 5 -2
19 -7 14 -16 25 -20 25 -5 0 -5 6 -1 13 6 10 4 10 -7 0 -7 -7 -23 -13 -35 -13
-12 0 -25 6 -27 13 -4 10 -6 10 -6 0z"/>
<path d="M21659 13613 c-13 -17 -13 -17 6 -3 11 8 22 16 24 17 2 2 0 3 -6 3
-6 0 -17 -8 -24 -17z"/>
<path d="M21940 13610 c-8 -5 -12 -12 -9 -15 4 -3 12 1 19 10 14 17 11 19 -10
5z"/>
<path d="M21678 13599 c-9 -6 -7 -10 7 -14 11 -4 30 -11 43 -16 29 -11 32 -11
32 0 0 5 -10 11 -22 13 -13 2 -22 8 -21 14 2 12 -21 14 -39 3z"/>
<path d="M21980 13561 c0 -6 4 -13 10 -16 6 -3 7 1 4 9 -7 18 -14 21 -14 7z"/>
<path d="M22001 13516 c-1 -16 -7 -18 -42 -13 l-41 5 33 -24 c39 -29 38 -29
56 -6 8 9 12 12 9 5 -4 -6 -2 -14 3 -17 11 -7 8 9 -7 44 -9 20 -11 21 -11 6z"/>
<path d="M21440 13455 c-2 -11 -2 -37 -2 -57 2 -38 1 -38 -36 -38 -21 0 -43 5
-50 10 -9 7 -9 7 -2 -2 6 -7 10 -31 10 -54 0 -37 3 -43 26 -48 16 -4 30 -18
37 -36 9 -23 18 -30 38 -30 28 0 59 -27 59 -53 0 -32 15 -24 16 9 0 21 -3 30
-8 22 -12 -20 -10 40 2 63 7 13 7 19 0 19 -13 0 -13 47 0 55 6 3 10 14 10 23
0 15 -2 15 -11 2 -8 -12 -10 -12 -8 5 1 11 1 37 0 58 -1 33 -4 37 -27 37 -17
0 -23 4 -18 13 6 9 4 9 -8 -1 -14 -11 -17 -10 -21 5 -4 16 -5 16 -7 -2z"/>
<path d="M20100 13436 c0 -2 8 -10 18 -17 15 -13 16 -12 3 4 -13 16 -21 21
-21 13z"/>
<path d="M20093 13399 c-2 -23 3 -25 10 -4 4 8 3 16 -1 19 -4 3 -9 -4 -9 -15z"/>
<path d="M20050 13360 c-6 -11 -8 -20 -6 -20 3 0 10 9 16 20 6 11 8 20 6 20
-3 0 -10 -9 -16 -20z"/>
<path d="M21563 13212 c2 -12 6 -24 10 -28 3 -4 4 4 2 16 -6 30 -16 40 -12 12z"/>
<path d="M21582 13122 c-10 -7 -8 -12 6 -26 19 -16 19 -16 15 9 -3 14 -6 25
-7 25 0 0 -7 -4 -14 -8z"/>
<path d="M20376 13097 c3 -10 9 -15 12 -12 3 3 0 11 -7 18 -10 9 -11 8 -5 -6z"/>
<path d="M20352 13038 c-7 -22 -11 -43 -8 -45 3 -3 8 6 12 21 3 14 10 26 15
26 11 0 12 27 1 34 -4 2 -13 -14 -20 -36z"/>
</g>
</svg>
