<?xml version="1.0" ?><svg xmlns="http://www.w3.org/2000/svg" xmlns:xlink="http://www.w3.org/1999/xlink" version="1.1" id="Layer_1" viewBox="0 0 100 100" style="enable-background:new 0 0 100 100;" xml:space="preserve"><style type="text/css">
	.st0{fill:#EEEEEE;}
	.st1{fill:#FFFFFF;}
	.st2{fill:#F2EDED;}
	.st3{fill:#FBB040;}
	.st4{fill:#ED8B00;}
	.st5{fill:#005EB8;}
	.st6{fill:#F9DAC0;}
	.st7{fill:#0A84F2;}
	.st8{fill:#0A6ADD;}
</style><title/><g><g id="Rectangle-290"><g id="path-1"><path class="st0" d="M48.8,2.3h2.3c25.7,0,46.5,20.8,46.5,46.5l0,0v2.3c0,25.7-20.8,46.5-46.5,46.5l0,0h-2.3     c-25.7,0-46.5-20.8-46.5-46.5l0,0v-2.3C2.3,23.2,23.1,2.3,48.8,2.3L48.8,2.3z"/><path class="st1" d="M51.2,100h-2.3C22,100,0.1,78.1,0,51.2v-2.3C0,21.9,21.9,0,48.8,0h2.3C78,0,99.9,21.9,100,48.8v2.3     C100,78,78.1,99.9,51.2,100z M48.8,4.7C24.5,4.7,4.7,24.5,4.7,48.9v2.3c0,24.3,19.9,44.2,44.2,44.2h2.3     c24.3,0,44.2-19.9,44.2-44.2v-2.3c0-24.3-19.9-44.2-44.2-44.2H48.8z"/></g><g id="path-1-2"><path class="st2" d="M51.2,98.3h-2.3c-25.9,0-47.1-21.1-47.1-47.1v-2.3c0-26,21.1-47.1,47.1-47.1h2.3c25.9,0,47.1,21.1,47.1,47.1     v2.3C98.3,77.1,77.1,98.2,51.2,98.3z M48.8,2.9C23.5,2.9,2.9,23.5,2.9,48.9v2.3c0,25.3,20.7,45.9,45.9,45.9h2.3     c25.3,0,45.9-20.7,45.9-45.9v-2.3C97,23.5,76.4,2.9,51.1,2.9H48.8z"/></g></g><g><g><path class="st3" d="M71.2,43.6c0,4.2,0,8.5,0,12.8c-0.2,0-0.5,0-0.7,0c-3.7,0-7.4,0-11.1,0c-1.4,0-2.1,0.7-2.1,2     c0,0.1,0,0.3,0,0.5c-1-0.8-2.2-1.3-3.5-1.5c-1-0.1-2,0-3.1-0.1c0.1-0.1,0.2-0.1,0.3-0.1c2.1-0.4,4.1-2.5,4.3-4.5     c0.5,0,0.9,0,1.4,0c1.3,0,2-0.8,2-2.3c0-1.1,0.1-2.2-0.1-3.4c-0.3-1.5-0.8-2.9-2-4c0-0.1-0.1-0.2-0.2-0.3     c-2.1-2.2-4.7-3.2-7.7-2.8c-3.6,0.5-5.9,2.6-7.2,6c-0.5,1.5-0.4,3-0.4,4.5c-0.2,1.5,0.8,2.5,2.3,2.3c0.3,0,0.7,0,1,0     c0.1,1,0.6,1.9,1.2,2.7c0.9,1,2.1,1.6,3.4,2c-0.7,0-1.3,0-2,0c-4.1,0-7.4,3.3-7.4,7.4c0,2,0,4.1,0,6.1c0,1.1,0.4,1.9,1.4,2.2     c-4.1,0-8.3,0-12.4,0c0-9.7,0-19.5,0-29.2c0-0.1,0-0.1,0-0.2c0.1,0,0.2,0,0.2-0.1c2.8-2.1,5.5-4.3,8.2-6.5     c3.3-2.6,6.6-5.1,9.9-7.7c1-0.7,1.9-1.5,2.8-2.2c0.1,0,0.1,0.1,0.2,0.1c2.1,1.6,4.1,3.2,6.2,4.9c2.3,1.8,4.6,3.6,7,5.4     c2,1.6,4,3.1,6,4.7C70,42.7,70.5,43.3,71.2,43.6z"/></g><g><path class="st4" d="M28.7,41.4c-0.8,0.6-1.6,1.2-2.3,1.8c-0.8,0.6-1.7,0.6-2.5,0.1c-0.8-0.5-1.2-1.2-1.1-2.2     c0-0.7,0.4-1.3,1-1.7C29.4,35,35,30.6,40.6,26.2c2.6-2,5.2-4.1,7.8-6.1c1.1-0.9,2.1-0.9,3.2,0C59.8,26.5,68,33,76.1,39.4     c0.8,0.6,1.2,1.4,1,2.4c-0.3,1.7-2.2,2.4-3.6,1.4c-0.8-0.6-1.6-1.2-2.3-1.8c-0.1-0.1-0.2-0.2-0.3-0.3c-3.1-2.4-6.1-4.8-9.2-7.2     c-3.8-3-7.5-5.9-11.3-8.9c-0.3-0.2-0.5-0.2-0.8,0c-2.3,1.8-4.6,3.6-7,5.5c-3.5,2.7-7.1,5.5-10.6,8.3     C30.9,39.7,29.8,40.5,28.7,41.4z"/></g><g><path class="st1" d="M57.4,73c4.1,0,8.2,0,12.3,0c1.3,0,2.6,0,3.9,0c0.3,0,0.7,0,1-0.1c0.1,0.1,0.3,0.1,0.3,0.3     c0,1.1,0,2.2,0,3.4c-16.6,0-33.2,0-49.8,0c0-1.2,0-2.4,0-3.7c1.2,0,2.4,0,3.7,0c4.1,0,8.3,0,12.4,0c0.1,0,0.3,0,0.5,0     c2.5,0,4.9,0,7.4,0c1.5,0,3.1,0,4.6,0C54.9,73,56.1,73,57.4,73z"/></g><g><path class="st3" d="M28.7,41.4c1-0.9,2.1-1.7,3.2-2.6c3.5-2.8,7.1-5.6,10.6-8.3c2.3-1.8,4.7-3.6,7-5.5c0.3-0.2,0.5-0.2,0.8,0     c3.8,3,7.5,5.9,11.3,8.9c3.1,2.4,6.1,4.8,9.2,7.2c0.1,0.1,0.2,0.2,0.3,0.3c0,0.7,0,1.5,0,2.2c-0.7-0.3-1.2-0.9-1.8-1.3     c-2-1.5-4-3.1-6-4.7c-2.3-1.8-4.6-3.6-7-5.4c-2.1-1.6-4.1-3.2-6.2-4.9c0,0-0.1,0-0.2-0.1c-0.9,0.7-1.9,1.4-2.8,2.2     c-3.3,2.6-6.6,5.1-9.9,7.7c-2.8,2.1-5.5,4.3-8.2,6.5c0,0-0.2,0.1-0.2,0.1C28.8,42.8,28.7,42.1,28.7,41.4z"/></g><g><path class="st5" d="M58.6,47c-0.3-1.5-0.8-2.9-2-4c0-0.1-0.1-0.2-0.2-0.3c-2.1-2.2-4.7-3.2-7.7-2.8c-3.6,0.5-5.9,2.6-7.2,6     c-0.5,1.5-0.4,3-0.4,4.5c0.4-0.9,1-1.4,2-1.4c0-0.1,0-0.2,0-0.3c0,0.1,0,0.2,0,0.3c0.4,0,0.9,0,1.3,0c0.2,0,0.3,0,0.5,0     c2.5,0,4.8-0.8,6.8-2.3c0.5-0.4,0.9-0.9,1.4-1.3c0.8,1.2,1.6,2.4,2.3,3.6c0.3,0,0.6,0,0.9,0c1.1-0.1,1.9,0.3,2.4,1.4     C58.7,49.3,58.9,48.1,58.6,47z"/></g><g><path class="st6" d="M56.4,49c-0.3,0-0.6,0-0.9,0c-0.8-1.2-1.6-2.4-2.3-3.6c-0.5,0.5-1,1-1.4,1.3c-2,1.6-4.2,2.3-6.8,2.3     c-0.2,0-0.3,0-0.5,0l0,0c-0.4,0-0.9,0-1.3,0c-1,0-1.6,0.5-2,1.4c-0.2,1.5,0.8,2.5,2.3,2.3c0.3,0,0.7,0,1,0c0.1,1,0.6,1.9,1.2,2.7     c0.9,1,2.1,1.6,3.4,2c0.5,0,1.1,0,1.6,0c0.1-0.1,0.2-0.1,0.3-0.1c2.1-0.4,4.1-2.5,4.3-4.5l0,0c0.5,0,0.9,0,1.4,0     c1.3,0,2-0.8,2-2.3C58.3,49.4,57.5,48.9,56.4,49z M44.5,50.5c0,0.5,0,1,0,1.4C44.5,51.5,44.5,51,44.5,50.5z"/></g><g><path class="st7" d="M57.4,59.6c0-0.2,0-0.5,0-0.7c-1-0.8-2.2-1.3-3.5-1.5c-1-0.1-2,0-3.1-0.1c-0.5,0-1.1,0-1.6,0     c-0.7,0-1.3,0-2,0c-4.1,0-7.4,3.3-7.4,7.4c0,2,0,4.1,0,6.1c0,1.1,0.4,1.9,1.4,2.2c0.1,0,0.3,0,0.5,0c0-1.7,0-3.3,0-5     c0,1.7,0,3.3,0,5c2.5,0,4.9,0,7.4,0c0-1.5,0-3.1,0-4.6c-1.5,0-3,0-4.4,0c-0.7,0-1.1-0.3-1.1-1c0-0.6,0.4-0.9,1.1-0.9     c1.5,0,3.1,0,4.6,0c2,0.1,3.7,0.9,4.9,2.5c0,0,0,0.1,0,0.2c1,0,2.1,0,3.1,0C57.4,66.1,57.4,62.9,57.4,59.6z"/></g><g><path class="st1" d="M66.6,62c1.5,0,2.8,1.3,2.8,2.8c0,1.5-1.3,2.8-2.8,2.7c-1.5,0-2.7-1.3-2.7-2.8C63.8,63.2,65.1,62,66.6,62z"/></g><g><path class="st5" d="M75.8,58.4c0-1.2-0.8-2-2-2c-0.9,0-1.7,0-2.6,0c-0.2,0-0.5,0-0.7,0c-3.7,0-7.4,0-11.1,0     c-1.4,0-2.1,0.7-2.1,2c0,0.1,0,0.3,0,0.5c0,0.2,0,0.5,0,0.7c0,3.2,0,6.5,0,9.7l0,0c-1,0-2.1,0-3.1,0c-0.8,0-1.6,0-2.3,0     c1.1,1,1.7,2.1,1.8,3.7c1.2,0,2.5,0,3.7,0c4.1,0,8.2,0,12.3,0c1.3,0,2.6,0,3.9,0c0.3,0,0.7,0,1-0.1c0.9-0.3,1.3-1,1.3-1.9     C75.8,66.8,75.8,62.6,75.8,58.4z"/></g><g><path class="st6" d="M51.9,69.4c1.1,1,1.7,2.1,1.8,3.7c-1.5,0-3.1,0-4.6,0c0-1.5,0-3.1,0-4.6C50.1,68.4,51,68.8,51.9,69.4z"/></g><g><path class="st8" d="M51.9,69.4c-0.9-0.5-1.8-1-2.9-1c-1.5,0-3,0-4.4,0c-0.7,0-1.1-0.3-1.1-1c0-0.6,0.4-0.9,1.1-0.9     c1.5,0,3.1,0,4.6,0c2,0.1,3.7,0.9,4.9,2.5c0,0,0,0.1,0,0.2C53.5,69.4,52.7,69.4,51.9,69.4z"/></g><g><path class="st1" d="M66.5,67.1c-1.2,0-2.3-1.1-2.3-2.4c0-1.3,1.1-2.4,2.4-2.4s2.4,1.1,2.4,2.4C69,66,67.9,67.1,66.5,67.1z"/></g></g></g></svg>